<svg width="27" height="21" viewBox="0 0 27 21" fill="none" xmlns="http://www.w3.org/2000/svg">
<path d="M11.7 20.6016C12.2063 20.7797 12.75 20.4094 12.75 19.875V2.18437C12.75 1.9875 12.675 1.79062 12.5156 1.66875C11.5969 0.9375 9.4875 0 6.75 0C4.38281 0 2.17031 0.623437 0.848438 1.12969C0.31875 1.33594 0 1.86094 0 2.42813V19.7859C0 20.3438 0.6 20.7328 1.12969 20.5594C2.60625 20.0672 4.94531 19.5 6.75 19.5C8.33906 19.5 10.4531 20.1562 11.7 20.6016ZM15.3 20.6016C16.5469 20.1562 18.6609 19.5 20.25 19.5C22.0547 19.5 24.3938 20.0672 25.8703 20.5594C26.4 20.7375 27 20.3438 27 19.7859V2.42813C27 1.86094 26.6813 1.33594 26.1516 1.13438C24.8297 0.623438 22.6172 0 20.25 0C17.5125 0 15.4031 0.9375 14.4844 1.66875C14.3297 1.79062 14.25 1.9875 14.25 2.18437V19.875C14.25 20.4094 14.7984 20.7797 15.3 20.6016Z" fill="#E53935"/>
</svg>
